<?xml version="1.0" encoding="UTF-8"?>
<svg width="722px" height="650px" viewBox="0 0 722 650" version="1.1" xmlns="http://www.w3.org/2000/svg" xmlns:xlink="http://www.w3.org/1999/xlink">
    <title>Tablet Flow Chart</title>
    <defs>
        <linearGradient x1="50%" y1="0%" x2="50%" y2="100%" id="linearGradient-1">
            <stop stop-color="#FFFFFF" stop-opacity="0.35" offset="0.00527871622%"></stop>
            <stop stop-color="#FFFFFF" stop-opacity="0.5" offset="100%"></stop>
        </linearGradient>
    </defs>
    <g id="Page-1" stroke="none" stroke-width="1" fill="none" fill-rule="evenodd">
        <g id="t:-1.0-Homepage" transform="translate(-23.000000, -665.000000)">
            <g id="Tablet-Flow-Chart" transform="translate(23.500000, 665.000000)">
                <g id="Lines" transform="translate(0.000000, 68.000000)">
                    <path d="M179,359 C179,330.833478 156.166522,308 128,308" id="Path-Copy-7" stroke="#FFFFFF" stroke-width="13" opacity="0.35" transform="translate(153.500000, 333.500000) rotate(-180.000000) translate(-153.500000, -333.500000) "></path>
                    <path d="M179,308 C179,279.833478 156.166522,257 128,257" id="Path-Copy-8" stroke="#FFFFFF" stroke-width="13" opacity="0.35" transform="translate(153.500000, 282.500000) rotate(-450.000000) translate(-153.500000, -282.500000) "></path>
                    <path d="M592.5,206 C592.5,177.833478 569.666522,155 541.5,155" id="Path-Copy-2" stroke="#FFFFFF" stroke-width="13" opacity="0.5"></path>
                    <path d="M592.5,257 C592.5,228.833478 569.666522,206 541.5,206" id="Path-Copy-6" stroke="#FFFFFF" stroke-width="13" opacity="0.5" transform="translate(567.000000, 231.500000) rotate(-270.000000) translate(-567.000000, -231.500000) "></path>
                    <line x1="299.5" y1="-87" x2="299.5" y2="397" id="Path-10" stroke="#FFFFFF" stroke-width="13" opacity="0.2" transform="translate(299.500000, 155.000000) rotate(-90.000000) translate(-299.500000, -155.000000) "></line>
                    <line x1="479.75" y1="93.25" x2="479.75" y2="216.75" id="Path-10" stroke="#FFFFFF" stroke-width="13" opacity="0.2" transform="translate(479.750000, 155.000000) rotate(-90.000000) translate(-479.750000, -155.000000) "></line>
                    <line x1="187" y1="-186" x2="187" y2="187.5" id="Line" stroke="#FFFFFF" stroke-width="4" opacity="0.2" transform="translate(187.000000, 1.000000) rotate(-90.000000) translate(-187.000000, -1.000000) "></line>
                    <line x1="389.75" y1="3.25" x2="389.75" y2="306.75" id="Path-10" stroke="#FFFFFF" stroke-width="13" opacity="0.2" transform="translate(389.750000, 155.000000) rotate(-90.000000) translate(-389.750000, -155.000000) "></line>
                    <line x1="360.25" y1="75.75" x2="360.25" y2="438.25" id="Path-10-Copy" stroke="url(#linearGradient-1)" stroke-width="13" transform="translate(360.250000, 257.000000) rotate(-90.000000) translate(-360.250000, -257.000000) "></line>
                    <line x1="421" y1="117" x2="421" y2="601" id="Path-10-Copy-2" stroke="#FFFFFF" stroke-width="13" opacity="0.2" transform="translate(421.000000, 359.000000) rotate(-270.000000) translate(-421.000000, -359.000000) "></line>
                    <line x1="623.75" y1="416.25" x2="623.75" y2="609.75" id="Line-Copy-4" stroke="#FFFFFF" stroke-width="4" opacity="0.2" transform="translate(623.750000, 513.000000) rotate(-270.000000) translate(-623.750000, -513.000000) "></line>
                    <line x1="330.75" y1="207.25" x2="330.75" y2="510.75" id="Path-10-Copy-4" stroke="#FFFFFF" stroke-width="13" opacity="0.2" transform="translate(330.750000, 359.000000) rotate(-270.000000) translate(-330.750000, -359.000000) "></line>
                    <line x1="6.5" y1="3" x2="6.5" y2="104" id="Path-10" stroke="#FFFFFF" stroke-width="13" opacity="0.2"></line>
                    <path d="M57.5,155 C57.5,126.833478 34.6665222,104 6.5,104" id="Path-Copy" stroke="#FFFFFF" stroke-width="13" opacity="0.2" transform="translate(32.000000, 129.500000) rotate(-180.000000) translate(-32.000000, -129.500000) "></path>
                    <line x1="714" y1="410" x2="714" y2="511" id="Path-10" stroke="#FFFFFF" stroke-width="13" opacity="0.2" transform="translate(714.000000, 460.500000) rotate(-180.000000) translate(-714.000000, -460.500000) "></line>
                    <path d="M714,410 C714,381.833478 691.166522,359 663,359" id="Path-Copy" stroke="#FFFFFF" stroke-width="13" opacity="0.2" transform="translate(688.500000, 384.500000) rotate(-360.000000) translate(-688.500000, -384.500000) "></path>
                    <line x1="533.5" y1="410" x2="533.5" y2="511" id="Path-10" stroke="#FFFFFF" stroke-width="13" opacity="0.2" transform="translate(533.500000, 460.500000) rotate(-180.000000) translate(-533.500000, -460.500000) "></line>
                    <path d="M533.5,410 C533.5,381.833478 510.666522,359 482.5,359" id="Path-Copy" stroke="#FFFFFF" stroke-width="13" opacity="0.2" transform="translate(508.000000, 384.500000) rotate(-360.000000) translate(-508.000000, -384.500000) "></path>
                    <line x1="187" y1="3" x2="187" y2="104" id="Path-10" stroke="#FFFFFF" stroke-width="13" opacity="0.2"></line>
                    <path d="M238,155 C238,126.833478 215.166522,104 187,104" id="Path-Copy" stroke="#FFFFFF" stroke-width="13" opacity="0.2" transform="translate(212.500000, 129.500000) rotate(-180.000000) translate(-212.500000, -129.500000) "></path>
                    <line x1="367" y1="3" x2="367" y2="104" id="Path-10" stroke="#FFFFFF" stroke-width="13" opacity="0.2"></line>
                    <path d="M418,155 C418,126.833478 395.166522,104 367,104" id="Path-Copy" stroke="#FFFFFF" stroke-width="13" opacity="0.2" transform="translate(392.500000, 129.500000) rotate(-180.000000) translate(-392.500000, -129.500000) "></path>
                </g>
                <g id="Other-Text" transform="translate(6.500000, 0.000000)">
                    <text id="Actively-homeless-in" font-family="SourceCodePro-Semibold, Source Code Pro" font-size="18" font-weight="500" fill="#FFFFFF">
                        <tspan x="262.2" y="348">Actively homeless</tspan>
                        <tspan x="294.6" y="371">in Brisbane</tspan>
                    </text>
                    <text id="IN-FLOW-Copy" font-family="Montserrat-ExtraBold, Montserrat" font-size="32" font-weight="600" line-spacing="36" fill="#FDC37F">
                        <tspan x="0" y="31">IN FLOW</tspan>
                    </text>
                    <text id="SINCE-APRIL-2020-Copy-2" font-family="Montserrat-SemiBold, Montserrat" font-size="16" font-weight="500" line-spacing="18" fill="#FFFFFF">
                        <tspan x="0" y="56">SINCE APRIL 2020</tspan>
                    </text>
                    <text id="Returned-from-housin-Copy-2" font-family="SourceCodePro-Semibold, Source Code Pro" font-size="18" font-weight="500" fill="#FFFFFF">
                        <tspan x="0" y="144">Returned from </tspan>
                        <tspan x="0" y="167">housing</tspan>
                    </text>
                    <text id="Moved-to-inactive" font-family="SourceCodePro-Semibold, Source Code Pro" font-size="18" font-weight="500" fill="#FFFFFF">
                        <tspan x="621.6" y="543">Moved to </tspan>
                        <tspan x="621.6" y="566">inactive</tspan>
                    </text>
                    <text id="Permanently-housed-Copy" font-family="SourceCodePro-Semibold, Source Code Pro" font-size="18" font-weight="500" fill="#FFFFFF">
                        <tspan x="408.2" y="543">Permanently </tspan>
                        <tspan x="462.2" y="566">housed</tspan>
                    </text>
                    <text id="Newly-identified-Copy" font-family="SourceCodePro-Semibold, Source Code Pro" font-size="18" font-weight="500" fill="#FFFFFF">
                        <tspan x="180" y="144">Newly </tspan>
                        <tspan x="180" y="167">identified</tspan>
                    </text>
                    <text id="Re-engaged-from-inac-Copy" font-family="SourceCodePro-Semibold, Source Code Pro" font-size="18" font-weight="500" fill="#FFFFFF">
                        <tspan x="360" y="144">Re-engaged </tspan>
                        <tspan x="360" y="167">from inactive</tspan>
                    </text>
                    <text id="OUT-FLOW-Copy" font-family="Montserrat-ExtraBold, Montserrat" font-size="32" font-weight="600" line-spacing="36" fill="#6BC7BB">
                        <tspan x="522" y="622">OUT FLOW</tspan>
                    </text>
                    <text id="SINCE-APRIL-2020-Copy-4" font-family="Montserrat-SemiBold, Montserrat" font-size="16" font-weight="500" line-spacing="18" fill="#FFFFFF">
                        <tspan x="558" y="647">SINCE APRIL 2020</tspan>
                    </text>
                </g>
                <g id="Out-Flow-Numbers" transform="translate(457.500000, 478.000000)" fill="#6BC7BB" font-family="SourceCodePro-Bold, Source Code Pro" font-size="42" font-weight="bold" line-spacing="42">
                    <text id="Moved-to-Inactive">
                        <tspan x="206" y="41">67</tspan>
                    </text>
                    <text id="Permanently-Housed">
                        <tspan x="0" y="41">154</tspan>
                    </text>
                </g>
                <g id="Active-Number" transform="translate(297.500000, 283.000000)" fill="#FFFFFF" font-family="SourceCodePro-Bold, Source Code Pro" font-size="42" font-weight="bold" line-spacing="42">
                    <text id="Active-number">
                        <tspan x="0" y="41">1,138</tspan>
                    </text>
                </g>
                <g id="In-Flow-Numbers" transform="translate(6.500000, 79.000000)" fill="#FDC37F" font-family="SourceCodePro-Bold, Source Code Pro" font-size="42" font-weight="bold" line-spacing="42">
                    <text id="Returned-from-housing">
                        <tspan x="0" y="41">26</tspan>
                    </text>
                    <text id="Newly-identified">
                        <tspan x="180" y="41">960</tspan>
                    </text>
                    <text id="Re-Engaged">
                        <tspan x="360" y="41">119</tspan>
                    </text>
                </g>
            </g>
        </g>
    </g>
</svg>